<svg version="1.1" id="Layer_1" xmlns="http://www.w3.org/2000/svg" xmlns:xlink="http://www.w3.org/1999/xlink" x="0px" y="0px"
	 width="100%" viewBox="0 0 1024 1024" enable-background="new 0 0 1024 1024" xml:space="preserve">
<path fill="#000000" opacity="1.000000" stroke="none" 
	d="
M493.000000,715.858215 
	C525.666382,715.846802 557.832825,715.833557 589.999207,715.826782 
	C592.332214,715.826294 594.670837,715.779968 596.996948,715.919739 
	C600.626282,716.137939 601.497620,717.797119 599.187561,720.730530 
	C594.447266,726.749939 589.711914,732.774597 584.881042,738.721130 
	C553.683105,777.124268 522.500610,815.539917 491.227417,853.881653 
	C476.488251,871.952393 461.570221,889.877319 446.694092,907.835938 
	C445.590515,909.168213 444.421906,911.390930 442.332794,910.220825 
	C440.145050,908.995483 441.652557,906.962341 442.271790,905.337830 
	C459.596222,859.890991 476.941467,814.452026 494.279053,769.010254 
	C496.731079,762.583374 496.356842,762.038757 489.219788,762.049072 
	C449.886993,762.106140 410.554230,762.183899 371.221436,762.254700 
	C370.221466,762.256531 369.221436,762.266296 368.221497,762.261047 
	C360.695465,762.221558 360.230682,761.417786 364.093628,754.721130 
	C369.505219,745.339783 374.958710,735.982605 380.425659,726.633362 
	C414.063965,669.107239 447.065826,611.209290 481.278351,554.017334 
	C483.816528,549.774292 486.669739,548.002319 491.638611,548.016235 
	C539.304077,548.149841 586.970154,548.077209 634.636047,548.065002 
	C635.469238,548.064758 636.306396,548.032104 637.134888,548.099365 
	C641.660156,548.466614 642.502319,549.994934 639.953979,553.786194 
	C632.332336,565.125427 624.622437,576.405701 616.903259,587.679077 
	C607.678711,601.151062 598.391113,614.579956 589.184570,628.064209 
	C588.187378,629.524719 586.987061,631.021790 587.261353,633.062988 
	C588.850464,634.441772 590.751648,633.970520 592.517090,633.971558 
	C645.683289,634.003357 698.849792,634.132812 752.015503,633.971741 
	C783.253113,633.877136 810.494629,623.366882 832.411255,600.771362 
	C849.383911,583.272949 859.142883,562.076599 862.918518,537.988342 
	C867.534485,508.538727 862.538147,480.851837 847.258423,455.373871 
	C828.212158,423.615601 799.867065,404.704224 763.778992,397.023743 
	C746.431335,393.331726 729.010864,394.512970 711.567871,395.721863 
	C710.407837,395.802277 709.261902,396.067657 708.104248,396.202362 
	C699.926331,397.153870 699.312805,396.464966 698.759277,388.398102 
	C695.156494,335.894501 673.651794,291.852203 635.029480,256.386749 
	C607.285156,230.910141 574.737061,214.076416 537.446228,207.962540 
	C476.092773,197.903534 420.592865,211.489014 372.663818,251.954941 
	C341.878052,277.946991 321.117889,310.578033 310.994476,349.691833 
	C307.394409,363.601288 305.977661,377.857880 306.037567,392.242401 
	C306.052155,395.742035 305.890900,399.245270 306.000977,402.740875 
	C306.132568,406.919830 304.608551,408.785004 300.097015,408.454041 
	C294.457062,408.040375 288.770874,408.254120 283.104584,408.203186 
	C246.231934,407.871582 216.498260,422.866425 193.697617,451.258911 
	C144.633026,512.356445 173.907486,607.380676 248.493607,630.020569 
	C258.914429,633.183777 269.636353,634.694336 280.501221,634.716370 
	C317.833832,634.792297 355.166779,634.715881 392.499573,634.697144 
	C393.666199,634.696533 394.833496,634.664490 395.999329,634.693359 
	C399.761383,634.786499 400.856171,636.442322 398.893127,639.778259 
	C396.527252,643.798828 394.123871,647.797180 391.735352,651.804382 
	C386.702240,660.248413 381.585114,668.644043 376.676819,677.159973 
	C374.793396,680.427795 372.221741,681.832153 368.541992,681.807190 
	C334.223999,681.574097 299.876862,682.176086 265.596649,680.928589 
	C238.040588,679.925659 212.935013,669.978882 190.277512,654.254333 
	C152.952988,628.350769 129.860352,592.783569 122.234062,548.247131 
	C114.512375,503.153625 124.617523,461.473602 152.006332,424.502930 
	C174.461914,394.191345 203.751328,373.470551 240.278137,363.365967 
	C244.924530,362.080597 249.631424,360.618042 254.389023,360.246704 
	C258.771057,359.904724 259.975983,357.688263 260.580811,354.042511 
	C263.119812,338.736847 266.921356,323.754059 272.585724,309.289642 
	C287.017151,272.437775 309.340363,241.141052 339.027191,215.026108 
	C365.431793,191.798447 395.371155,174.726517 428.985657,164.523270 
	C494.077942,144.765396 557.012573,150.371689 617.233643,182.282227 
	C664.766846,207.469559 700.740967,244.134125 724.492981,292.539398 
	C731.850464,307.533478 737.664917,323.135345 741.292908,339.458984 
	C742.233215,343.689850 744.101318,344.844360 748.366943,345.009644 
	C788.406189,346.561066 823.819580,360.232147 854.106873,386.569031 
	C882.438477,411.205231 900.446472,442.089935 908.618835,478.687592 
	C926.818665,560.190674 885.900391,644.580139 802.617554,673.723999 
	C786.807739,679.256470 770.374756,682.133179 753.604492,682.146362 
	C676.438660,682.206970 599.272705,682.108276 522.106750,682.066162 
	C521.273438,682.065735 520.439575,682.075806 519.606873,682.050903 
	C513.307922,681.862610 512.428894,680.309631 515.727966,674.874878 
	C529.907898,651.515442 544.154236,628.196167 558.284912,604.807007 
	C559.668762,602.516541 562.813477,600.276184 561.076233,597.340820 
	C559.403809,594.515015 555.965820,595.862793 553.200134,595.842712 
	C541.550781,595.757690 529.895508,595.808105 518.255859,595.413879 
	C513.747498,595.261292 510.847626,596.488098 508.463928,600.513489 
	C487.072144,636.637512 465.501587,672.655701 444.019806,708.726562 
	C442.951111,710.521057 441.406525,712.226929 442.038696,715.857910 
	C458.751282,715.857910 475.625641,715.857910 493.000000,715.858215 
z"/>
</svg>